<svg xmlns="http://www.w3.org/2000/svg" width="23.066" height="20" viewBox="0 0 23.066 20">
  <path id="shopping-cart-solid" d="M21.149,11.77l1.893-8.125A.944.944,0,0,0,22.105,2.5H6.376L6.009.75A.956.956,0,0,0,5.067,0H.961A.95.95,0,0,0,0,.938v.625A.95.95,0,0,0,.961,2.5h2.8L6.573,15.915a2.177,2.177,0,0,0-1.127,1.9,2.243,2.243,0,0,0,4.485,0,2.155,2.155,0,0,0-.674-1.563h8.4a2.155,2.155,0,0,0-.674,1.563,2.243,2.243,0,0,0,4.485,0A2.184,2.184,0,0,0,20.2,15.844l.221-.948a.944.944,0,0,0-.937-1.145H8.735L8.473,12.5H20.212A.956.956,0,0,0,21.149,11.77Z" fill="#5d5d5d"/>
</svg>
