<svg xmlns="http://www.w3.org/2000/svg" width="17.38" height="10.428" viewBox="0 0 17.38 10.428">
  <path id="handshake-regular" d="M14.1,65.735l-1.293-1.293A1.528,1.528,0,0,0,11.731,64H5.572a1.532,1.532,0,0,0-1.075.443L3.2,65.735H0v6.944H1.738a.866.866,0,0,0,.866-.861h.247l2.3,2.075a2.39,2.39,0,0,0,2.868.1,1.667,1.667,0,0,0,2.441-.22A1.523,1.523,0,0,0,12.2,73.32l.711-.877a1.489,1.489,0,0,0,.3-.625h1.572a.868.868,0,0,0,.866.861H17.38V65.735Zm-2.205,5.887-.709.874a.219.219,0,0,1-.307.033L10.23,72l-.815.991a.363.363,0,0,1-.489.065l-1-.855-.424.521A1.082,1.082,0,0,1,6,72.9l-2.642-2.39H2.607V67.036H3.745L5.42,65.363l.155-.062h1.54l-1.051.964a1.944,1.944,0,0,0-.119,2.751,1.967,1.967,0,0,0,2.756.119l.223-.2,2.938,2.384a.222.222,0,0,1,.033.307Zm2.879-1.108H12.894a1.522,1.522,0,0,0-.209-.209L9.9,68.041l.339-.31a.434.434,0,0,0,.027-.614l-.3-.318a.436.436,0,0,0-.614-.027l-1.5,1.374a.691.691,0,0,1-.94,0,.644.644,0,0,1,.033-.921l1.781-1.632a1.081,1.081,0,0,1,.733-.285l2.273-.005a.2.2,0,0,1,.149.062l1.676,1.673h1.214Z" transform="translate(0 -64)" fill="#8e8e8e"/>
</svg>
