<svg xmlns="http://www.w3.org/2000/svg" width="17.487" height="15.186" viewBox="0 0 17.487 15.186">
  <g id="newspaper-svgrepo-com" transform="translate(-5.112 -34.572)">
    <rect id="Rectangle_1161" data-name="Rectangle 1161" width="4.693" height="3.494" transform="translate(14.392 39.241)" fill="#8e8e8e"/>
    <path id="Path_2297" data-name="Path 2297" d="M35.281,49.758H51.426a.671.671,0,0,0,.671-.671V35.243a.671.671,0,0,0-.671-.671H35.281a.671.671,0,0,0-.671.671V49.087A.671.671,0,0,0,35.281,49.758ZM42.817,38.7a.537.537,0,0,1,.537-.537H49.12a.537.537,0,0,1,.537.537v4.568a.537.537,0,0,1-.537.537H43.354a.537.537,0,0,1-.537-.537Zm-5.229-.537h3.46a.537.537,0,0,1,0,1.074h-3.46a.537.537,0,1,1,0-1.074Zm0,2.307h3.46a.537.537,0,0,1,0,1.074h-3.46a.537.537,0,1,1,0-1.074Zm0,2.307h3.46a.537.537,0,0,1,0,1.074h-3.46a.537.537,0,1,1,0-1.074Zm0,3.461H49.12a.537.537,0,1,1,0,1.074H37.587a.537.537,0,1,1,0-1.074Z" transform="translate(-29.498)" fill="#8e8e8e"/>
  </g>
</svg>
